<?xml version="1.0" encoding="UTF-8" standalone="no"?>
<!-- Created with Inkscape (http://www.inkscape.org/) -->

<svg
   width="450"
   height="170"
   id="svg2"
   version="1.1"
   inkscape:version="1.4.3 (0d15f75042, 2025-12-25)"
   sodipodi:docname="logo.svg"
   xmlns:inkscape="http://www.inkscape.org/namespaces/inkscape"
   xmlns:sodipodi="http://sodipodi.sourceforge.net/DTD/sodipodi-0.dtd"
   xmlns="http://www.w3.org/2000/svg"
   xmlns:svg="http://www.w3.org/2000/svg"
   xmlns:rdf="http://www.w3.org/1999/02/22-rdf-syntax-ns#"
   xmlns:cc="http://creativecommons.org/ns#"
   xmlns:dc="http://purl.org/dc/elements/1.1/">
  <defs
     id="defs4" />
  <sodipodi:namedview
     id="base"
     pagecolor="#ffffff"
     bordercolor="#666666"
     borderopacity="1.0"
     inkscape:pageopacity="0.0"
     inkscape:pageshadow="2"
     inkscape:zoom="1.4172614"
     inkscape:cx="222.25963"
     inkscape:cy="97.370887"
     inkscape:document-units="px"
     inkscape:current-layer="layer1"
     showgrid="false"
     inkscape:window-width="1716"
     inkscape:window-height="957"
     inkscape:window-x="0"
     inkscape:window-y="0"
     inkscape:window-maximized="0"
     fit-margin-top="0"
     fit-margin-left="0"
     fit-margin-right="0"
     fit-margin-bottom="0"
     inkscape:snap-text-baseline="true"
     inkscape:snap-global="false"
     inkscape:showpageshadow="2"
     inkscape:pagecheckerboard="0"
     inkscape:deskcolor="#d1d1d1" />
  <metadata
     id="metadata7">
    <rdf:RDF>
      <cc:Work
         rdf:about="">
        <dc:format>image/svg+xml</dc:format>
        <dc:type
           rdf:resource="http://purl.org/dc/dcmitype/StillImage" />
      </cc:Work>
    </rdf:RDF>
  </metadata>
  <g
     inkscape:label="Layer 1"
     inkscape:groupmode="layer"
     id="layer1"
     transform="translate(-49.107723,-470.70853)">
    <path
       style="fill:#000000;fill-opacity:1;stroke:none;stroke-width:0.48830372"
       d="m 387.74905,473.17788 c 4.55133,2.29383 7.62666,7.46771 9.94918,11.91766 0.40373,-2.4392 1.48503,-3.85545 1.93495,-6.21296 0.68158,-3.57153 2.18628,2.70929 2.84124,5.31267 0.516,6.9055 4.71834,12.71432 4.9899,19.63897 0.96122,5.27311 4.89806,8.82254 7.59921,13.15366 2.49477,4.68185 6.3304,8.41559 9.93393,12.20759 3.57073,2.25766 4.08744,3.13117 7.75808,4.82608 6.66856,4.05694 9.25848,5.49759 14.32546,11.39968 3.86883,6.22651 7.41328,12.69013 9.81334,19.61765 2.64372,6.74583 4.77248,14.26648 3.01992,21.47616 -1.40846,2.09815 -1.47898,6.2683 1.75481,6.59208 5.49952,-0.41436 11.18919,-4.1458 13.27576,-8.81996 2.09331,-4.68927 1.08614,-10.23403 -1.29302,-14.90268 -3.6405,-7.39477 -6.1833,-15.36403 -10.94675,-22.18388 -5.51485,-8.44678 -6.68483,-18.84785 -6.98719,-28.6666 0.52727,-7.39766 5.78255,-15.87762 13.83843,-16.17686 6.9824,1.21306 2.69461,7.11644 -0.99497,10.32614 -7.05735,6.13948 -4.29741,19.46543 -2.16938,25.42812 1.86619,5.22903 5.67067,11.17401 8.95168,16.60471 4.06908,6.7351 6.85002,14.33405 8.51275,22.01757 1.08872,6.30517 -1.63231,11.96732 -5.84437,16.51074 -3.35669,4.48221 -8.68868,7.30369 -13.70302,9.53717 -4.66452,1.36732 -9.51562,-2.24063 -14.03873,0.30521 -4.09907,4.07161 -10.05652,4.36479 -15.50365,4.94402 -7.94358,0.48785 -15.71683,-1.21061 -23.62171,-1.3427 -2.88655,0.85873 -6.46886,0.58381 -8.31636,-2.13641 -0.99179,-1.2279 -0.75032,-3.53101 1.08346,-3.82989 2.40772,-0.70156 -4.96342,-0.6335 -3.7538,-3.79963 -0.46671,-1.88997 1.1715,-3.17195 3.00606,-3.18916 3.87029,-1.38114 3.76818,-10.1543 2.38052,-9.76608 -4.34658,5.57877 -5.7152,12.72944 -9.1556,18.79967 -0.41169,1.76657 -0.73499,3.99243 -2.91444,4.40985 -3.02948,0.8895 -6.4042,1.09146 -9.50654,0.35089 -2.88983,-1.09236 -3.00341,-5.48945 -1.1292,-7.46172 1.74789,-0.95692 4.74182,-0.33196 5.4628,-2.79236 2.23848,-6.53103 4.02953,-13.18167 6.01215,-19.77628 -0.0298,-8.26612 0.75975,-14.39653 -2.58514,-21.68796 -3.64435,-5.66561 -4.08251,-7.66689 -4.08636,-14.66522 -1.01631,-5.78052 1.08628,-11.33411 0.91562,-17.07534 -0.20143,-3.66946 -3.61828,-6.57951 -7.26352,-6.10375 -4.24024,-0.93683 -7.81682,-4.36083 -10.02005,-7.96141 -2.12797,-3.88311 -1.82493,-8.84157 2.52771,-10.77722 1.89857,-2.87637 1.70608,-7.06632 4.85252,-9.17093 2.59436,-2.78144 6.32099,-3.78734 9.76607,-4.91356 1.66068,-2.53478 0.28742,-6.14654 0.33571,-9.01826 -0.0117,-1.07567 -0.50046,-2.06873 -1.00746,-2.94547 z m 4.42525,80.14285 c 0.41456,2.03546 0.19561,0.24135 0,0 z m 21.35112,38.71837 c -1.42209,2.6977 -0.53308,7.49624 2.06007,4.57785 -0.80889,-1.46456 -1.76016,-2.90003 -2.06007,-4.57785 z"
       id="path3091"
       inkscape:connector-curvature="0"
       sodipodi:nodetypes="ccscccccccccsccccssscccccccccccccccccccccccccccccccc"
       inkscape:export-filename="/home/fender/workspace/AlleyCat/logo.png"
       inkscape:export-xdpi="85.330002"
       inkscape:export-ydpi="85.330002" />
    <path
       style="fill:#007400;fill-opacity:1;stroke:none"
       d=""
       id="path3117"
       inkscape:connector-curvature="0"
       inkscape:export-filename="/home/fender/workspace/AlleyCat/logo.png"
       inkscape:export-xdpi="84.839996"
       inkscape:export-ydpi="84.839996" />
    <path
       style="fill:#007400;fill-opacity:1;stroke:none"
       d=""
       id="path3200"
       inkscape:connector-curvature="0"
       inkscape:export-filename="/home/fender/workspace/AlleyCat/logo.png"
       inkscape:export-xdpi="84.839996"
       inkscape:export-ydpi="84.839996" />
    <path
       style="fill:#d4fc44;fill-opacity:1;stroke:none"
       d=""
       id="path3087"
       inkscape:connector-curvature="0"
       transform="translate(0,308.2677)"
       inkscape:export-filename="/home/fender/workspace/AlleyCat/logo.png"
       inkscape:export-xdpi="84.839996"
       inkscape:export-ydpi="84.839996" />
    <path
       d="m 151.22643,544.65699 -0.28127,3.09389 -0.93754,5.06273 -3.00014,15.46946 -4.5002,23.25107 -0.65628,4.59396 q 0,2.90638 1.59382,2.90638 1.68758,0 6.09403,-4.68771 l 0.84379,0.65628 0.84379,0.65628 q -3.46891,4.21894 -8.43789,7.87536 -4.96898,3.65642 -6.75031,3.65642 -3.37516,0 -3.37516,-5.90653 0,-1.31256 0,-2.71887 0.28127,-1.31256 1.59383,-10.03171 1.40631,-8.71915 2.81263,-16.12574 1.50007,-7.40659 2.43761,-11.53178 0.93754,-4.21894 1.59382,-7.03157 0.75004,-2.90639 1.31256,-4.87523 0.56253,-2.06259 0.93755,-3.00013 l 0.93754,-2.15635 q 6.37529,0 6.93782,0.84379 z m -4.59396,-0.0938 q 0,0.93754 -0.56253,1.87509 -0.56253,0.84379 -1.12505,0.84379 -12.46932,-1.59383 -20.34469,-1.59383 -24.657377,0 -24.657377,13.40687 0,5.90652 4.312697,13.68813 0,0.75003 -1.40631,0.75003 -0.37502,0 -0.56253,-0.0937 -0.0937,-0.0938 -3.843926,-5.71902 -3.656418,-5.71901 -3.656418,-13.03184 0,-6.84407 6.281534,-9.75045 6.3753,-3.00014 18.75087,-3.00014 8.62539,0 26.34495,1.87509 0.46878,0.46877 0.46878,0.75003 z m -84.66014,35.06411 q 0.281263,0.56253 0.281263,0.93754 -2.718874,5.43775 -2.718874,9.75045 0,4.3127 2.250103,7.31284 2.343857,2.90638 6.281538,4.5002 4.031435,1.59383 8.906659,1.59383 3.656418,0 7.875361,-1.0313 4.312698,-1.12505 8.437888,-3.09389 3.93768,-2.15635 8.812902,-6.46905 4.87523,-4.40645 8.43789,-8.43789 3.65642,-4.03143 5.62526,-6.37529 2.06259,-2.43761 3.56266,-4.40645 1.50007,-1.96884 3.56266,-4.87523 2.0626,-3.00013 3.28141,-4.78147 l 5.90652,-8.8129 q 4.12519,-6.09403 8.8129,-10.78174 l 0.75004,-0.18751 q 0.75003,0 1.78133,0.75003 0.84379,0.84379 0.84379,1.78133 -8.25038,9.6567 -12.46933,16.2195 -4.21894,6.46904 -5.43775,8.34413 -1.2188,1.87509 -3.2814,4.59396 -2.06259,2.71888 -4.12519,5.15649 -1.96884,2.34386 -5.90652,6.28154 -3.84392,3.84392 -8.62539,7.87536 -4.78147,4.03143 -7.875365,6.18778 -3.000137,2.15635 -7.219081,4.59396 -4.218944,2.43761 -9.187922,3.93768 -4.875223,1.50007 -9.281676,1.50007 -5.343995,0 -9.187921,-2.06259 -3.750172,-2.0626 -5.906521,-5.53151 -2.062595,-3.56266 -2.062595,-8.06287 0,-6.65655 4.687715,-13.59437 2.156349,-2.81263 3.187646,-2.81263 z m 58.12767,-2.71887 19.6884,0.28126 -0.93754,2.62512 -20.90721,0.56252 z m 47.25213,18.18833 q 0.75003,0 0.75003,0.65628 0,0.84379 -5.62526,6.46905 -5.62525,5.62526 -8.15662,5.62526 -1.68758,0 -1.68758,-3.75018 l 0.28127,-4.5002 1.03129,-7.78161 1.31256,-9.93796 1.31256,-9.93795 1.31256,-8.90666 1.0313,-6.75031 0.28126,-3.56266 q 0,-1.96885 -0.93754,-1.96885 -0.56252,0 -4.12519,2.15635 l -1.12505,0.37502 q -0.56253,0 -0.75003,-0.75003 0,-0.93755 2.06259,-2.0626 2.0626,-1.2188 5.43775,-3.56266 l 4.68772,-3.09389 q 0.93754,-0.65628 1.87508,-0.65628 1.31256,0 1.31256,2.90638 0,3.65642 -2.81263,19.59465 l -2.53136,14.62567 -1.40632,9.93796 -0.46877,5.90652 q 0,3.18764 1.12505,3.18764 1.0313,0 3.09389,-2.06259 2.0626,-2.15635 2.71888,-2.15635 z m 18.46964,0 q 0.75004,0 0.75004,0.65628 0,0.84379 -5.62526,6.46905 -5.62526,5.62526 -8.15663,5.62526 -1.68757,0 -1.68757,-3.75018 l 0.28126,-4.5002 1.0313,-7.78161 1.31256,-9.93796 1.31256,-9.93795 1.31256,-8.90666 1.03129,-6.75031 0.28127,-3.56266 q 0,-1.96885 -0.93755,-1.96885 -0.56252,0 -4.12519,2.15635 l -1.12505,0.37502 q -0.56252,0 -0.75003,-0.75003 0,-0.93755 2.06259,-2.0626 2.0626,-1.2188 5.43775,-3.56266 l 4.68772,-3.09389 q 0.93754,-0.65628 1.87508,-0.65628 1.31256,0 1.31256,2.90638 0,3.65642 -2.81263,19.59465 l -2.53136,14.62567 -1.40632,9.93796 -0.46877,5.90652 q 0,3.18764 1.12505,3.18764 1.0313,0 3.0939,-2.06259 2.06259,-2.15635 2.71887,-2.15635 z m 19.12593,-18.18833 q 0,-1.78134 -1.87508,-1.78134 -2.34386,0 -3.46891,0.56253 -1.12506,0.56253 -1.96884,2.34386 -0.75004,1.68757 -1.96884,5.90652 -1.21881,4.12519 -1.21881,7.96911 0,7.50035 5.25024,7.50035 2.71888,0 6.5628,-2.0626 l 2.53137,-1.40631 1.68758,-0.84379 0.56252,1.0313 q 0,0.75003 -0.84379,1.59382 l -2.34386,1.78133 -2.06259,1.59383 q -7.12533,6.09403 -12.00055,6.09403 -3.18765,0 -4.96898,-2.62513 -1.78133,-2.71887 -1.78133,-8.06287 l 0.28126,-3.65641 q 0,-3.2814 0.75004,-5.90652 0.75003,-2.71888 2.62512,-6.84407 1.96884,-4.21894 6.18778,-7.21908 4.21895,-3.00014 9.56294,-3.00014 4.40645,0 4.40645,2.71888 0,1.96884 -1.78133,4.78147 -1.78133,2.81263 -3.46891,4.59396 -1.68758,1.68758 -2.2501,2.2501 -0.56253,0.56253 -3.00014,2.62512 -2.34386,1.96884 -4.59396,3.37516 -2.15635,1.40631 -3.2814,1.59382 -1.59382,0 -1.59382,-0.65628 0,-0.56253 1.31256,-1.68758 l 3.93768,-2.90638 4.40645,-3.37516 q 0.93754,-0.75003 1.68758,-1.40631 0.75003,-0.75004 1.68757,-1.96884 1.0313,-1.21881 1.0313,-2.90638 z m 26.43863,22.78229 q -1.31256,1.0313 -2.81263,2.2501 -1.40632,1.12506 -4.68772,3.18765 -3.18764,2.0626 -4.68771,2.0626 -2.0626,0 -2.0626,-4.3127 0,-1.12505 0,-1.87509 0,-0.75003 0.37502,-3.75017 0.46877,-3.00014 0.56252,-3.65642 0.0938,-0.75003 0.75004,-3.84392 l 2.15635,-11.06301 q 0,-2.25011 -0.84379,-2.25011 -1.59382,0 -5.43775,4.50021 h -1.21881 v -1.21881 l 1.40632,-1.78133 3.46891,-3.37515 q 1.59382,-1.40632 2.2501,-1.78133 0.65628,-0.46878 2.81263,-1.50007 2.15635,-1.12505 3.37515,-1.12505 1.68758,0 1.68758,3.2814 0,1.12505 0,2.15635 -0.28126,1.31256 -0.46877,2.43761 -0.0937,1.12505 -0.37502,3.18764 -0.18751,2.0626 -0.65628,4.96898 l -1.31256,9.93796 0.18751,3.00014 q 0.0938,0.65628 0.75004,0.65628 1.31256,0 5.25024,-3.46891 3.93768,-3.56267 5.06273,-3.56267 0.56253,0 0.56253,0.75004 l -0.28127,0.93754 -1.50007,1.50007 z m 13.1256,-22.9698 -1.87509,11.063 q -0.65628,3.46891 -0.93754,6.09403 -0.28126,2.53137 -0.28126,6.28154 0,3.09389 -0.37502,6.28154 -0.28126,3.18765 -0.56253,5.5315 -0.28126,2.34386 -0.84379,4.59397 -0.56252,2.2501 -2.06259,5.5315 -1.40631,3.37515 -6.84406,7.50034 -5.43775,4.12519 -11.53178,4.12519 -4.59396,0 -7.40659,-2.81263 -2.81263,-2.81263 -2.81263,-6.75031 0,-2.71887 1.68757,-5.5315 1.68758,-2.81263 4.78147,-5.62526 3.2814,-2.71887 4.87523,-2.71887 l 0.37502,0.46877 q -0.18751,0.28126 -0.46878,0.46877 -0.28126,0.18751 -1.59382,0.93754 -1.31256,0.84379 -3.00014,2.53137 -1.59382,1.78133 -3.37515,5.5315 -0.46877,1.21881 -0.65628,1.78134 -0.0938,0.65628 -0.0938,1.50006 0,3.56267 4.3127,4.87523 4.3127,1.40631 7.21908,1.40631 5.81277,0 8.15663,-5.06273 2.34385,-5.06273 2.34385,-15.09444 0,-2.81263 0.28127,-6.5628 0.28126,-3.84393 1.03129,-10.12547 0.75004,-6.37529 2.0626,-12.93809 l 1.21881,-6.84407 7.40659,-3.18764 z m 61.12781,-23.43858 q -2.43761,-1.96884 -6.09403,-3.09389 -3.65641,-1.21881 -7.7816,-1.21881 -2.43762,0 -4.78147,0.37502 -2.25011,0.37502 -3.37516,1.31256 -4.21894,4.03144 -6.46905,11.06301 -2.15634,6.93782 -2.15634,14.90693 0,6.65656 1.68757,12.37557 1.78134,5.62526 5.90652,9.18792 4.21895,3.56267 10.03171,3.56267 8.90666,-1.40632 15.09445,-8.25038 0.84379,-1.21881 2.15635,-1.21881 0.37501,0.28126 0.37501,0.84379 -0.0937,0.28126 -0.28126,0.65628 -0.0937,0.28126 -1.59382,1.96884 -1.40632,1.68758 -4.3127,4.21894 -2.90638,2.43762 -6.00028,4.21895 -3.09389,1.68758 -6.00027,2.62512 -2.90638,0.84379 -4.78147,1.12505 -1.87509,0.37502 -3.84393,0.37502 -5.43775,0 -9.18792,-3.2814 -3.75017,-3.2814 -5.5315,-8.81291 -1.68758,-5.5315 -1.68758,-12.18806 0,-7.40659 1.96884,-14.81318 1.96884,-7.40659 5.90652,-13.21935 3.93768,-5.81277 10.8755,-9.28168 7.03157,-3.46891 13.68813,-3.46891 4.96898,0 9.28167,1.87509 4.3127,1.87508 4.3127,5.15648 -1.50007,7.21908 -2.71887,9.09417 -1.12505,1.87509 -1.87509,1.87509 -0.93754,0 -0.93754,-1.31256 0,-1.21881 0.46877,-2.43762 0,-2.15634 -2.34386,-4.21894 z m 27.37624,21.93851 -2.2501,-0.0938 q -1.87509,0 -3.37516,0.84379 -1.40631,0.75004 -2.71887,3.18765 -1.21881,2.43761 -2.2501,7.5941 -0.93755,5.06273 -0.93755,8.53164 0,4.96898 2.34386,4.96898 1.96884,0 4.68772,-2.81263 2.71887,-2.90639 4.68771,-5.62526 l 2.15635,-2.62512 q 0.37502,0.65628 0.37502,1.12505 0,1.59382 -0.93755,3.18765 -0.93754,1.59382 -2.43761,3.09389 l -3.18764,3.46891 q -6.84407,7.12533 -10.68799,7.12533 -4.12519,0 -4.12519,-7.40659 0,-0.65628 0.0937,-1.96884 0.0938,-1.40632 0.37502,-3.46891 0.37502,-2.0626 1.0313,-4.59396 0.65628,-2.53137 2.15634,-6.46905 1.50007,-4.03144 4.21895,-6.93782 2.71887,-3.00014 4.96898,-4.12519 2.2501,-1.21881 4.78147,-1.21881 l 7.12532,-0.65628 q 2.81263,0 2.81263,1.40632 0,0.75003 -0.56252,1.68758 -0.46878,0.84379 -1.21881,1.2188 l -1.78133,0.37502 -2.43761,0.18751 z m 7.5941,10.78174 -1.59382,10.03171 -0.37502,3.84393 q 0,0.56253 0.0938,0.84379 0.1875,0.18751 0.28126,0.28126 l 1.96884,-1.40631 q 0.65628,-0.65628 1.50007,-1.31256 0.84379,-0.65628 1.78133,-1.31256 1.0313,-0.65628 1.68758,-0.65628 0.46877,0.28126 0.46877,0.46877 -0.0938,0.28126 -0.28126,0.56252 -0.18751,0.28127 -0.56253,0.75004 -5.90652,5.25024 -8.53164,7.03157 -2.62512,2.0626 -4.12519,2.0626 -1.59382,0 -1.59382,-3.46891 l 0.28126,-4.40646 0.93754,-7.7816 1.0313,-8.15663 q 0.18751,-2.34386 0.56252,-3.93768 0.37502,-1.68758 1.21881,-3.84392 0.93754,-2.25011 2.34386,-3.65642 1.59382,-1.31256 2.71887,-1.31256 2.0626,0 2.0626,3.2814 z m 16.59451,7.50035 q 0,5.34399 1.87509,5.34399 1.40631,0 4.87522,-3.46891 1.12506,-0.93754 1.59383,-0.93754 0.65628,0 0.75003,0.75003 0,0.84379 -1.87508,2.71888 -1.78134,1.78133 -3.84393,3.65642 -1.96884,1.87508 -4.59396,3.93768 -2.62512,1.96884 -4.3127,1.96884 -2.34386,0 -2.34386,-5.71901 0,-5.90653 1.87509,-19.87592 l 1.0313,-8.15662 0.84378,-5.25024 0.75004,-5.344 q 0.0937,-1.31256 0.46877,-1.78133 l 1.68758,-1.40631 3.00014,-2.62512 q 2.53136,-2.53137 3.00013,-2.53137 0.37502,0.46877 0.37502,0.84379 l -1.59382,10.03171 q -3.56267,19.96967 -3.56267,27.84503 z m 10.78175,-23.25107 -0.75004,3.18765 h -21.09471 l 0.84378,-3.18765 z"
       id="text822"
       style="font-size:93.7543px;line-height:1.25;font-family:Magik;-inkscape-font-specification:'Magik, Normal';letter-spacing:0px;word-spacing:0px;fill:#000000;stroke-width:0.488304;fill-opacity:1"
       aria-label="Alley Cat" />
    <text
       xml:space="preserve"
       style="font-style:normal;font-variant:normal;font-weight:bold;font-stretch:normal;font-size:18.23px;line-height:1.25;font-family:'Inter UI';-inkscape-font-specification:'Inter UI, Bold';font-variant-ligatures:normal;font-variant-caps:normal;font-variant-numeric:normal;font-feature-settings:normal;text-align:start;letter-spacing:0px;word-spacing:0px;writing-mode:lr-tb;text-anchor:start;fill:#000000;fill-opacity:1;stroke:none;stroke-width:0.488304"
       x="277.99188"
       y="630.18158"
       id="text826"
       inkscape:export-filename="/home/fender/workspace/AlleyCat/logo.png"
       inkscape:export-xdpi="85.330002"
       inkscape:export-ydpi="85.330002"><tspan
         sodipodi:role="line"
         id="tspan824"
         x="277.99188"
         y="630.18158"
         style="stroke-width:0.488304">GAME FRAMEWORK</tspan></text>
  </g>
</svg>
